<svg xmlns="http://www.w3.org/2000/svg" viewBox="0 0 772.53 187.25"><g id="图层_2" data-name="图层 2"><g id="图层_1-2" data-name="图层 1"><path d="M46.11,4.94V143.26h55.28v39.05H0V4.94Z"/><path d="M229.36,151.5H163.49l-10.58,30.81H103.74L171.25,4.94H221.6l67.51,177.37H239.94Zm-12.23-35-20.7-59-20.71,59.05Z"/><path d="M357.1,44V182.31H311V44H273.11V4.94H395V44Z"/><path d="M504.59,44H449.78V73.63h51.75v39.05H449.78v30.58h54.81v39.05H403.67V4.94H504.59Z"/><path d="M623.39,50.34a57.12,57.12,0,0,0-15.06-9.05,40,40,0,0,0-14.58-2.95c-6,0-10.82,1.42-14.59,4.24a13.2,13.2,0,0,0-5.64,11.06,11,11,0,0,0,2.82,7.76,24.53,24.53,0,0,0,7.41,5.29,62.5,62.5,0,0,0,10.35,3.88q5.76,1.65,11.41,3.53,22.57,7.53,33,20.11T649,127a63.83,63.83,0,0,1-4.59,24.7A51.48,51.48,0,0,1,631,170.67a61.86,61.86,0,0,1-21.64,12.23,90.17,90.17,0,0,1-29,4.35q-33.65,0-62.34-20l19.76-37.17a79.68,79.68,0,0,0,20.47,13.64,49.14,49.14,0,0,0,20,4.47q11.29,0,16.82-5.17t5.53-11.76a15.89,15.89,0,0,0-1.41-6.94,14.94,14.94,0,0,0-4.71-5.41,37.74,37.74,0,0,0-8.58-4.59q-5.29-2.11-12.82-4.71-9-2.82-17.53-6.23a54.83,54.83,0,0,1-15.29-9.06A41.92,41.92,0,0,1,529.41,80.1q-4.12-8.58-4.12-21.76a62.93,62.93,0,0,1,4.35-23.88,53.06,53.06,0,0,1,12.24-18.35A54.66,54.66,0,0,1,561.17,4.23,72.94,72.94,0,0,1,586.69,0a111.72,111.72,0,0,1,27.52,3.65,121.7,121.7,0,0,1,27.53,10.7Z"/><path d="M734.65,44V182.31h-46.1V44H650.67V4.94H772.53V44Z"/></g></g></svg>