<svg xmlns="http://www.w3.org/2000/svg" viewBox="0 0 177.37 592.57"><g id="图层_2" data-name="图层 2"><g id="图层_1-2" data-name="图层 1"><path d="M177.37,546.46v46.11H0V519.18q0-29.88,15.53-45.76t43.75-15.88q28.23,0,43.76,15.88t15.52,45.76v27.28Zm-96,0V531.17q0-25.39-22.11-25.4t-22.11,25.4v15.29Z"/><path d="M177.37,297.34v57.4l-68.22,44h68.22v46.11H0V373.09q0-14.82,4.35-25.87a48.7,48.7,0,0,1,29.29-29.06,60.68,60.68,0,0,1,21.17-3.64q20.23,0,32.82,9.76t17.05,28.82ZM79.28,398.73V390q0-13.63-5.65-20.94T57.4,361.8q-10.59,0-16.23,7.29T35.52,390v8.7Z"/><path d="M39.05,188.9v54.81H68.69V192h39.05v51.75h30.58V188.9h39.05V289.82H0V188.9Z"/><path d="M0,136,108,93.16,0,50.11V0L177.37,74.81V111.5L0,186.08Z"/></g></g></svg>